<svg width="512" height="512" xmlns="http://www.w3.org/2000/svg">
 <title>forward-arrows-flat</title>

 <g>
  <title>background</title>
  <rect fill="none" id="canvas_background" height="402" width="582" y="-1" x="-1"/>
 </g>
 <g>
  <title>Layer 1</title>
  <path id="svg_1" fill="#2b77c1" d="m-2,256c0,-141.38 114.62,-256 256,-256s256,114.63 256,256s-114.63,256 -256,256s-256,-114.62 -256,-256z"/>
  <path id="svg_4" fill="#fff" d="m256,113.71a142.29,142.29 0 1 0 142.29,142.29a142.28,142.28 0 0 0 -142.29,-142.29zm0,256.53a114.23,114.23 0 1 1 114.22,-114.24a114.24,114.24 0 0 1 -114.22,114.24z"/>
  <path stroke="null" transform="rotate(178.38243103027344 203.49682617187497,259.1649475097657) " id="svg_5" fill="#fff" d="m188.495276,313.526124c-11.637136,9.93 -21.169128,1.79 -21.129901,-18.15s0.078453,-52.52 0.117679,-72.45s9.571218,-28.07 21.195278,-18.09l42.246727,36.27c11.610985,10 11.59791,26.28 0,36.22s-30.766496,26.24 -42.429783,36.2z"/>
  <path stroke="null" transform="rotate(177.68646240234375 301.0068664550781,259.77584838867193) " id="svg_7" fill="#fff" d="m285.793053,314.137017c-11.801798,9.93 -21.468663,1.79 -21.428882,-18.15s0.079563,-52.52 0.119344,-72.45s9.706647,-28.07 21.495184,-18.09l42.844504,36.27c11.775277,10 11.762016,26.28 0,36.22s-31.201831,26.24 -43.03015,36.2z"/>
 </g>
</svg>