<svg id="Layer_1" data-name="Layer 1" xmlns="http://www.w3.org/2000/svg" viewBox="0 0 512 512"><title>forward-arrows-flat</title><path d="M0,256C0,114.62,114.62,0,256,0S512,114.63,512,256,397.37,512,256,512,0,397.38,0,256Z" fill="#2b77c1"/><path d="M285.66,310.35c-8.91,9.93-16.2,1.79-16.15-18.15s.05-52.52.08-72.45,7.32-28.07,16.2-18.09,23.42,26.3,32.31,36.27,8.89,26.28,0,36.22S294.57,300.39,285.66,310.35Z" fill="#fff"/><path d="M203.38,310.35c-8.9,9.93-16.19,1.79-16.16-18.15s.06-52.52.09-72.45,7.32-28.07,16.21-18.09l32.31,36.27c8.88,10,8.87,26.28,0,36.22S212.3,300.39,203.38,310.35Z" fill="#fff"/><path d="M256,113.71A142.29,142.29,0,1,0,398.29,256,142.28,142.28,0,0,0,256,113.71Zm0,256.53A114.23,114.23,0,1,1,370.22,256,114.24,114.24,0,0,1,256,370.24Z" fill="#fff"/></svg>