<svg xmlns="http://www.w3.org/2000/svg" xmlns:xlink="http://www.w3.org/1999/xlink" viewBox="0 0 512 512"><defs><linearGradient id="linear-gradient" x1="-821.96" y1="256" x2="-311.92" y2="256" gradientTransform="translate(822.94)" gradientUnits="userSpaceOnUse"><stop offset="0" stop-color="#32c1fd"/><stop offset="0.21" stop-color="#32befa"/><stop offset="0.39" stop-color="#32b3f3"/><stop offset="0.56" stop-color="#33a2e5"/><stop offset="0.72" stop-color="#3389d3"/><stop offset="0.87" stop-color="#3369bb"/><stop offset="1" stop-color="#3449a3"/></linearGradient><radialGradient id="radial-gradient" cx="-575.28" cy="255.41" r="283.49" gradientTransform="translate(816.73 2.69) scale(0.98 0.98)" gradientUnits="userSpaceOnUse"><stop offset="0" stop-color="#32c1fd"/><stop offset="0.23" stop-color="#32befa"/><stop offset="0.42" stop-color="#32b3f3"/><stop offset="0.6" stop-color="#33a2e5"/><stop offset="0.77" stop-color="#3389d3"/><stop offset="0.94" stop-color="#3469bb"/><stop offset="1" stop-color="#345cb1"/></radialGradient><linearGradient id="linear-gradient-2" x1="-800.69" y1="255.34" x2="-335.11" y2="255.34" gradientTransform="translate(822.94)" gradientUnits="userSpaceOnUse"><stop offset="0" stop-color="#32c1fd"/><stop offset="0.29" stop-color="#3394dc"/><stop offset="0.6" stop-color="#336cbd"/><stop offset="0.85" stop-color="#3452aa"/><stop offset="1" stop-color="#3449a3"/></linearGradient></defs><title>eject-other</title><g style="isolation:isolate"><g id="Layer_1" data-name="Layer 1"><g id="_Group_" data-name="&lt;Group&gt;"><circle id="_Path_" data-name="&lt;Path&gt;" cx="256" cy="256" r="255.02" fill="url(#linear-gradient)"/><path id="_Path_2" data-name="&lt;Path&gt;" d="M488.39,248.39c4.29,134.43-105.57,244.3-240,240-121.74-3.89-220.9-103-224.78-224.78-4.29-134.43,105.57-244.3,240-240C385.35,27.49,484.51,126.65,488.39,248.39Z" fill="url(#radial-gradient)"/></g><path id="_Compound_Path_" data-name="&lt;Compound Path&gt;" d="M255,488.13c-128.36,0-232.79-104.43-232.79-232.79S126.68,22.55,255,22.55,487.83,127,487.83,255.34,383.4,488.13,255,488.13Zm0-463.71C127.71,24.42,24.12,128,24.12,255.34S127.71,486.26,255,486.26,486,382.67,486,255.34,382.37,24.42,255,24.42Z" fill="url(#linear-gradient-2)"/><g style="mix-blend-mode:soft-light"><path d="M145.6,353.3A25.45,25.45,0,0,0,171,378.76h169.6a25.46,25.46,0,0,0,0-50.91H171A25.45,25.45,0,0,0,145.6,353.3Z" fill="#fff"/><path d="M360.41,284.69a12.53,12.53,0,0,1-12.89,12.43H164.17a12.53,12.53,0,0,1-12.89-12.43,13.45,13.45,0,0,1,1.84-6.7L244.8,139.55a12.53,12.53,0,0,1,22.09,0L358.57,278a13.44,13.44,0,0,1,1.84,6.7Z" fill="#fff"/></g><g style="mix-blend-mode:soft-light"><path d="M145.6,353.3A25.45,25.45,0,0,0,171,378.76h169.6a25.46,25.46,0,0,0,0-50.91H171A25.45,25.45,0,0,0,145.6,353.3Z" fill="#fff"/><path d="M360.41,284.69a12.53,12.53,0,0,1-12.89,12.43H164.17a12.53,12.53,0,0,1-12.89-12.43,13.45,13.45,0,0,1,1.84-6.7L244.8,139.55a12.53,12.53,0,0,1,22.09,0L358.57,278a13.44,13.44,0,0,1,1.84,6.7Z" fill="#fff"/></g><path id="_Path_3" data-name="&lt;Path&gt;" d="M324.07,185.7a433.15,433.15,0,0,1,161.21,30.92C466.85,107,371.52,23.48,256.66,23.48c-128.05,0-231.85,103.8-231.85,231.86A232.94,232.94,0,0,0,29.32,301,432.79,432.79,0,0,1,324.07,185.7Z" fill="#fff" opacity="0.15"/></g></g></svg>