<svg id="Layer_1" data-name="Layer 1" xmlns="http://www.w3.org/2000/svg" viewBox="0 0 512 512"><title>play-button-flat</title><path d="M0,256C0,114.62,114.62,0,256,0S512,114.63,512,256,397.37,512,256,512,0,397.38,0,256Z" fill="#ffc100"/><path d="M243,307.4c-13.91,9.41-25.27,1.7-25.25-17.17s.06-49.68.08-68.51,11.41-26.56,25.3-17.1l50.52,34.32c13.89,9.45,13.87,24.85,0,34.27Z" fill="#fff"/><path d="M256,112.56A143.44,143.44,0,1,0,399.43,256,143.42,143.42,0,0,0,256,112.56Zm0,258.59A115.16,115.16,0,1,1,371.16,256,115.17,115.17,0,0,1,256,371.15Z" fill="#fff"/></svg>